<?xml version="1.0" encoding="UTF-8"?>
<svg xmlns="http://www.w3.org/2000/svg" xmlns:xlink="http://www.w3.org/1999/xlink" width="50px" height="50px" viewBox="0 0 50 35" version="1.1">
<g id="surface1">
<path style=" stroke:none;fill-rule:nonzero;fill:rgb(0%,0%,0%);fill-opacity:1;" d="M 12.679688 4.988281 C 12.480469 5.214844 13.054688 5.25 17.679688 5.25 C 22.304688 5.25 22.875 5.214844 22.679688 4.988281 C 22.5 4.761719 21.714844 4.726562 17.679688 4.726562 C 13.644531 4.726562 12.855469 4.761719 12.679688 4.988281 Z M 12.679688 4.988281 "/>
<path style=" stroke:none;fill-rule:nonzero;fill:rgb(0%,0%,0%);fill-opacity:1;" d="M 8.214844 6.039062 C 8.019531 6.265625 8.894531 6.300781 15.980469 6.300781 C 23.070312 6.300781 23.945312 6.265625 23.75 6.039062 C 23.554688 5.808594 22.464844 5.773438 15.980469 5.773438 C 9.5 5.773438 8.410156 5.808594 8.214844 6.039062 Z M 8.214844 6.039062 "/>
<path style=" stroke:none;fill-rule:nonzero;fill:rgb(0%,0%,0%);fill-opacity:1;" d="M 8.480469 7 C 8.785156 7.332031 9.035156 7.351562 12.589844 7.351562 C 16.144531 7.351562 16.394531 7.332031 16.695312 7 C 17.019531 6.648438 17 6.648438 12.589844 6.648438 C 8.179688 6.648438 8.160156 6.648438 8.480469 7 Z M 8.480469 7 "/>
<path style=" stroke:none;fill-rule:nonzero;fill:rgb(0%,0%,0%);fill-opacity:1;" d="M 11.25 7.960938 C 11.445312 8.191406 12.5 8.226562 18.695312 8.226562 C 25.105469 8.226562 25.910156 8.191406 25.714844 7.960938 C 25.519531 7.734375 24.464844 7.699219 18.269531 7.699219 C 11.855469 7.699219 11.054688 7.734375 11.25 7.960938 Z M 11.25 7.960938 "/>
<path style=" stroke:none;fill-rule:nonzero;fill:rgb(0%,0%,0%);fill-opacity:1;" d="M 11.730469 8.679688 C 11.679688 8.734375 11.679688 8.890625 11.730469 9.03125 C 11.804688 9.203125 12.179688 9.273438 13.144531 9.273438 C 14.269531 9.273438 14.480469 9.222656 14.644531 8.925781 C 14.820312 8.59375 14.785156 8.574219 13.339844 8.574219 C 12.519531 8.574219 11.804688 8.628906 11.730469 8.679688 Z M 11.730469 8.679688 "/>
<path style=" stroke:none;fill-rule:nonzero;fill:rgb(0%,0%,0%);fill-opacity:1;" d="M 11.554688 9.746094 C 11.480469 9.800781 11.429688 9.921875 11.429688 10.011719 C 11.429688 10.078125 15.144531 10.148438 19.660156 10.148438 C 26.964844 10.148438 27.875 10.113281 27.679688 9.886719 C 27.480469 9.660156 26.355469 9.625 19.554688 9.625 C 15.214844 9.625 11.605469 9.675781 11.554688 9.746094 Z M 11.554688 9.746094 "/>
<path style=" stroke:none;fill-rule:nonzero;fill:rgb(0%,0%,0%);fill-opacity:1;" d="M 10.429688 10.9375 C 10.125 11.164062 10.195312 11.183594 11.355469 11.199219 C 12.339844 11.199219 12.660156 11.128906 12.75 10.9375 C 12.820312 10.726562 12.660156 10.675781 11.820312 10.675781 C 11.179688 10.675781 10.644531 10.78125 10.429688 10.9375 Z M 10.429688 10.9375 "/>
<path style=" stroke:none;fill-rule:nonzero;fill:rgb(0%,0%,0%);fill-opacity:1;" d="M 9.464844 11.898438 C 9.464844 12.023438 12.980469 12.074219 19.660156 12.074219 C 26.394531 12.074219 29.804688 12.023438 29.730469 11.898438 C 29.660156 11.796875 26.070312 11.726562 19.535156 11.726562 C 12.945312 11.726562 9.464844 11.777344 9.464844 11.898438 Z M 9.464844 11.898438 "/>
<path style=" stroke:none;fill-rule:nonzero;fill:rgb(0%,0%,0%);fill-opacity:1;" d="M 8.785156 12.808594 C 8.375 13.210938 8.589844 13.300781 10.160156 13.300781 C 11.695312 13.300781 11.964844 13.210938 11.964844 12.671875 C 11.964844 12.496094 8.980469 12.617188 8.785156 12.808594 Z M 8.785156 12.808594 "/>
<path style=" stroke:none;fill-rule:nonzero;fill:rgb(0%,0%,0%);fill-opacity:1;" d="M 8.214844 13.824219 C 8.214844 13.949219 12.269531 14 20.019531 14 C 27.820312 14 31.769531 13.949219 31.695312 13.824219 C 31.535156 13.578125 8.214844 13.578125 8.214844 13.824219 Z M 8.214844 13.824219 "/>
<path style=" stroke:none;fill-rule:nonzero;fill:rgb(0%,0%,0%);fill-opacity:1;" d="M 7.785156 14.804688 C 7.730469 14.960938 7.679688 15.121094 7.679688 15.15625 C 7.679688 15.191406 8.605469 15.226562 9.730469 15.226562 C 11.660156 15.226562 11.785156 15.207031 11.785156 14.875 C 11.785156 14.542969 11.660156 14.523438 9.839844 14.523438 C 8.230469 14.523438 7.875 14.578125 7.785156 14.804688 Z M 7.785156 14.804688 "/>
<path style=" stroke:none;fill-rule:nonzero;fill:rgb(0%,0%,0%);fill-opacity:1;" d="M 7.5 15.835938 C 7.5 16.066406 9.089844 16.101562 20.730469 16.101562 C 32.480469 16.101562 33.945312 16.066406 33.75 15.835938 C 33.554688 15.609375 31.855469 15.574219 20.519531 15.574219 C 9.070312 15.574219 7.5 15.609375 7.5 15.835938 Z M 7.5 15.835938 "/>
<path style=" stroke:none;fill-rule:nonzero;fill:rgb(0%,0%,0%);fill-opacity:1;" d="M 7.5 16.800781 C 7.5 17.132812 7.625 17.148438 10.089844 17.148438 C 11.519531 17.148438 12.679688 17.078125 12.679688 17.011719 C 12.679688 16.554688 12.144531 16.449219 9.875 16.449219 C 7.625 16.449219 7.5 16.46875 7.5 16.800781 Z M 7.5 16.800781 "/>
<path style=" stroke:none;fill-rule:nonzero;fill:rgb(0%,0%,0%);fill-opacity:1;" d="M 7.5 17.761719 C 7.5 17.988281 9.195312 18.023438 21.714844 18.023438 C 34.339844 18.023438 35.910156 17.988281 35.714844 17.761719 C 35.519531 17.535156 33.714844 17.5 21.5 17.5 C 9.179688 17.5 7.5 17.535156 7.5 17.761719 Z M 7.5 17.761719 "/>
<path style=" stroke:none;fill-rule:nonzero;fill:rgb(0%,0%,0%);fill-opacity:1;" d="M 7.535156 18.761719 C 7.605469 18.933594 8.589844 19.003906 11.535156 19.023438 C 15.105469 19.058594 15.394531 19.039062 14.839844 18.8125 C 14.035156 18.460938 7.429688 18.425781 7.535156 18.761719 Z M 7.535156 18.761719 "/>
<path style=" stroke:none;fill-rule:nonzero;fill:rgb(0%,0%,0%);fill-opacity:1;" d="M 24.285156 18.8125 C 24.089844 19.039062 24.339844 19.074219 26.339844 19.074219 C 28.339844 19.074219 28.589844 19.039062 28.394531 18.8125 C 28.214844 18.601562 27.75 18.550781 26.339844 18.550781 C 24.929688 18.550781 24.464844 18.601562 24.285156 18.8125 Z M 24.285156 18.8125 "/>
<path style=" stroke:none;fill-rule:nonzero;fill:rgb(0%,0%,0%);fill-opacity:1;" d="M 7.855469 19.773438 C 7.855469 19.898438 12.980469 19.949219 22.875 19.949219 C 32.820312 19.949219 37.839844 19.898438 37.769531 19.773438 C 37.605469 19.53125 7.855469 19.53125 7.855469 19.773438 Z M 7.855469 19.773438 "/>
<path style=" stroke:none;fill-rule:nonzero;fill:rgb(0%,0%,0%);fill-opacity:1;" d="M 1.964844 20.738281 C 1.769531 20.964844 3.394531 21 16.394531 21 C 29.25 21 31.054688 20.964844 31.144531 20.738281 C 31.230469 20.511719 29.554688 20.476562 16.714844 20.476562 C 4.019531 20.476562 2.160156 20.511719 1.964844 20.738281 Z M 1.964844 20.738281 "/>
<path style=" stroke:none;fill-rule:nonzero;fill:rgb(0%,0%,0%);fill-opacity:1;" d="M 1.964844 21.789062 C 2.160156 22.015625 4.5 22.050781 21.105469 22.050781 C 37.929688 22.050781 40.019531 22.015625 39.820312 21.789062 C 39.625 21.558594 37.285156 21.523438 20.679688 21.523438 C 3.855469 21.523438 1.769531 21.558594 1.964844 21.789062 Z M 1.964844 21.789062 "/>
<path style=" stroke:none;fill-rule:nonzero;fill:rgb(0%,0%,0%);fill-opacity:1;" d="M 2.714844 22.609375 C 2.769531 22.75 3.214844 22.855469 3.945312 22.890625 C 5 22.925781 5.054688 22.90625 4.75 22.664062 C 4.304688 22.328125 2.605469 22.296875 2.714844 22.609375 Z M 2.714844 22.609375 "/>
<path style=" stroke:none;fill-rule:nonzero;fill:rgb(0%,0%,0%);fill-opacity:1;" d="M 9.464844 22.664062 C 9.660156 22.890625 11.179688 22.925781 21.105469 22.925781 C 31.25 22.925781 32.519531 22.890625 32.320312 22.664062 C 32.125 22.433594 30.605469 22.398438 20.679688 22.398438 C 10.535156 22.398438 9.269531 22.433594 9.464844 22.664062 Z M 9.464844 22.664062 "/>
<path style=" stroke:none;fill-rule:nonzero;fill:rgb(0%,0%,0%);fill-opacity:1;" d="M 4.019531 23.800781 C 4.070312 23.886719 4.570312 23.976562 5.105469 23.976562 C 5.714844 23.976562 6.054688 23.90625 5.980469 23.800781 C 5.929688 23.695312 5.429688 23.625 4.894531 23.625 C 4.285156 23.625 3.945312 23.695312 4.019531 23.800781 Z M 4.019531 23.800781 "/>
<path style=" stroke:none;fill-rule:nonzero;fill:rgb(0%,0%,0%);fill-opacity:1;" d="M 10.714844 23.800781 C 11.089844 24.046875 42.195312 24.046875 42.054688 23.800781 C 41.980469 23.675781 36.5 23.625 26.195312 23.625 C 15.964844 23.625 10.535156 23.695312 10.714844 23.800781 Z M 10.714844 23.800781 "/>
<path style=" stroke:none;fill-rule:nonzero;fill:rgb(0%,0%,0%);fill-opacity:1;" d="M 5 24.761719 C 5.144531 24.9375 5.554688 25.023438 6.195312 25.023438 C 7.054688 25.023438 7.160156 24.988281 6.964844 24.761719 C 6.820312 24.585938 6.410156 24.5 5.769531 24.5 C 4.910156 24.5 4.804688 24.535156 5 24.761719 Z M 5 24.761719 "/>
<path style=" stroke:none;fill-rule:nonzero;fill:rgb(0%,0%,0%);fill-opacity:1;" d="M 12.410156 24.761719 C 13.179688 25.113281 18.660156 25.113281 19.285156 24.761719 C 19.679688 24.535156 19.304688 24.515625 15.804688 24.515625 C 12.320312 24.535156 11.929688 24.550781 12.410156 24.761719 Z M 12.410156 24.761719 "/>
<path style=" stroke:none;fill-rule:nonzero;fill:rgb(0%,0%,0%);fill-opacity:1;" d="M 28.605469 24.710938 C 28.679688 24.886719 29.480469 24.953125 31.695312 24.988281 C 34.355469 25.023438 34.660156 25.007812 34.464844 24.761719 C 34.285156 24.550781 33.730469 24.5 31.394531 24.5 C 29.195312 24.5 28.554688 24.550781 28.605469 24.710938 Z M 28.605469 24.710938 "/>
<path style=" stroke:none;fill-rule:nonzero;fill:rgb(0%,0%,0%);fill-opacity:1;" d="M 5.980469 25.726562 C 6.035156 25.8125 6.535156 25.898438 7.070312 25.898438 C 7.679688 25.898438 8.019531 25.828125 7.945312 25.726562 C 7.894531 25.621094 7.394531 25.550781 6.855469 25.550781 C 6.25 25.550781 5.910156 25.621094 5.980469 25.726562 Z M 5.980469 25.726562 "/>
<path style=" stroke:none;fill-rule:nonzero;fill:rgb(0%,0%,0%);fill-opacity:1;" d="M 29.644531 25.726562 C 30.019531 25.953125 44.160156 25.953125 44.019531 25.726562 C 43.945312 25.621094 41.304688 25.550781 36.644531 25.550781 C 31.894531 25.550781 29.464844 25.621094 29.644531 25.726562 Z M 29.644531 25.726562 "/>
<path style=" stroke:none;fill-rule:nonzero;fill:rgb(0%,0%,0%);fill-opacity:1;" d="M 6.964844 26.6875 C 7.105469 26.863281 7.519531 26.949219 8.160156 26.949219 C 9.019531 26.949219 9.125 26.914062 8.929688 26.6875 C 8.785156 26.511719 8.375 26.425781 7.730469 26.425781 C 6.875 26.425781 6.769531 26.460938 6.964844 26.6875 Z M 6.964844 26.6875 "/>
<path style=" stroke:none;fill-rule:nonzero;fill:rgb(0%,0%,0%);fill-opacity:1;" d="M 31.25 26.6875 C 31.605469 26.898438 32.855469 26.933594 37.929688 26.949219 C 43.445312 26.949219 44.125 26.914062 43.929688 26.6875 C 43.730469 26.460938 42.785156 26.425781 37.25 26.425781 C 31.570312 26.441406 30.855469 26.460938 31.25 26.6875 Z M 31.25 26.6875 "/>
<path style=" stroke:none;fill-rule:nonzero;fill:rgb(0%,0%,0%);fill-opacity:1;" d="M 7.945312 27.648438 C 8 27.738281 8.5 27.824219 9.035156 27.824219 C 9.644531 27.824219 9.980469 27.753906 9.910156 27.648438 C 9.855469 27.546875 9.355469 27.476562 8.820312 27.476562 C 8.214844 27.476562 7.875 27.546875 7.945312 27.648438 Z M 7.945312 27.648438 "/>
<path style=" stroke:none;fill-rule:nonzero;fill:rgb(0%,0%,0%);fill-opacity:1;" d="M 40.269531 27.738281 C 40.769531 27.859375 42.285156 27.964844 43.730469 27.984375 C 45.980469 28 46.269531 27.964844 46.070312 27.738281 C 45.894531 27.527344 45.285156 27.476562 42.605469 27.492188 C 39.605469 27.511719 39.445312 27.527344 40.269531 27.738281 Z M 40.269531 27.738281 "/>
<path style=" stroke:none;fill-rule:nonzero;fill:rgb(0%,0%,0%);fill-opacity:1;" d="M 9.019531 28.699219 C 9.195312 28.890625 9.535156 29.050781 9.769531 29.050781 C 10.054688 29.050781 10.179688 28.945312 10.179688 28.699219 C 10.179688 28.402344 10.054688 28.351562 9.429688 28.351562 C 8.714844 28.351562 8.695312 28.351562 9.019531 28.699219 Z M 9.019531 28.699219 "/>
<path style=" stroke:none;fill-rule:nonzero;fill:rgb(0%,0%,0%);fill-opacity:1;" d="M 43.570312 28.789062 C 43.820312 28.925781 44.5 29.03125 45.160156 29.050781 C 46.144531 29.050781 46.269531 29.015625 46.070312 28.789062 C 45.910156 28.59375 45.480469 28.523438 44.480469 28.523438 C 43.214844 28.542969 43.160156 28.558594 43.570312 28.789062 Z M 43.570312 28.789062 "/>
<path style=" stroke:none;fill-rule:nonzero;fill:rgb(0%,0%,0%);fill-opacity:1;" d="M 9.820312 29.574219 C 9.820312 29.664062 9.910156 29.75 10 29.75 C 10.105469 29.75 10.179688 29.664062 10.179688 29.574219 C 10.179688 29.46875 10.105469 29.398438 10 29.398438 C 9.910156 29.398438 9.820312 29.46875 9.820312 29.574219 Z M 9.820312 29.574219 "/>
<path style=" stroke:none;fill-rule:nonzero;fill:rgb(0%,0%,0%);fill-opacity:1;" d="M 45.625 29.75 C 46.144531 29.960938 48.089844 29.960938 47.945312 29.75 C 47.894531 29.644531 47.25 29.574219 46.554688 29.59375 C 45.660156 29.59375 45.375 29.644531 45.625 29.75 Z M 45.625 29.75 "/>
</g>
</svg>
