<?xml version="1.0" standalone="no"?>
<!DOCTYPE svg PUBLIC "-//W3C//DTD SVG 20010904//EN"
 "http://www.w3.org/TR/2001/REC-SVG-20010904/DTD/svg10.dtd">
<svg version="1.0" xmlns="http://www.w3.org/2000/svg"
 width="800.000000pt" height="184.000000pt" viewBox="0 0 800.000000 184.000000"
 preserveAspectRatio="xMidYMid meet">

<g transform="translate(0.000000,184.000000) scale(0.100000,-0.100000)"
fill="#000000" stroke="none">
<path d="M7690 1340 l0 -340 65 0 c60 0 80 9 55 25 -6 4 -10 96 -10 244 0 231
1 239 21 252 20 14 19 15 -26 48 -25 18 -58 51 -72 72 -14 21 -27 39 -29 39
-2 0 -4 -153 -4 -340z"/>
<path d="M4768 1642 c-18 -30 -72 -82 -105 -101 -17 -9 -17 -11 5 -26 22 -16
22 -20 22 -216 l0 -199 -34 0 c-22 0 -36 6 -40 16 -3 9 -6 79 -6 156 l0 141
-37 -47 c-20 -26 -55 -58 -77 -71 -23 -14 -36 -25 -29 -25 30 0 43 -32 43
-101 l0 -70 -77 3 -78 3 -5 158 -5 157 -45 -46 c-25 -26 -76 -71 -113 -101
-94 -75 -107 -99 -107 -195 l0 -78 85 0 c94 0 102 -6 63 -55 -47 -60 -133 -66
-189 -14 -28 26 -30 26 -24 6 20 -70 86 -117 164 -117 91 0 153 53 167 143 l7
37 240 0 240 0 -19 21 c-18 20 -19 44 -24 336 -5 304 -6 313 -22 285z m-520
-499 c-3 -35 -6 -38 -35 -41 -41 -4 -44 18 -8 53 34 35 47 32 43 -12z"/>
<path d="M4870 1351 c0 -176 3 -326 6 -335 5 -12 21 -16 72 -16 62 0 64 1 49
18 -15 16 -17 49 -17 250 l0 232 25 16 25 16 -45 30 c-25 17 -57 47 -73 69
-15 21 -30 39 -34 39 -5 0 -8 -144 -8 -319z"/>
<path d="M6250 1402 c0 -149 -3 -277 -6 -286 -8 -22 -70 -22 -78 0 -3 9 -6 79
-6 157 l0 141 -62 -60 c-35 -33 -89 -80 -122 -103 -73 -54 -98 -105 -94 -189
l3 -57 88 -3 c50 -2 87 -7 87 -13 0 -5 -6 -22 -14 -37 -36 -69 -157 -78 -205
-15 -24 29 -28 15 -7 -25 48 -91 159 -121 251 -68 48 29 69 60 80 119 l7 37
746 0 c721 0 745 1 729 18 -15 16 -17 55 -17 335 0 174 -4 317 -8 317 -4 0
-15 -13 -25 -29 -17 -29 -71 -81 -104 -100 -17 -9 -17 -11 5 -26 22 -16 22
-20 22 -216 l0 -200 -22 3 c-15 2 -24 13 -31 38 -21 83 -61 100 -235 100 -125
0 -142 2 -165 20 -16 13 -27 33 -29 52 l-3 32 -38 -57 c-22 -33 -63 -76 -98
-102 l-61 -45 264 -2 c226 -3 263 -5 263 -18 0 -13 -39 -15 -283 -18 -263 -2
-283 -1 -288 15 -18 57 -30 76 -58 96 -28 20 -46 22 -188 27 -198 6 -192 2
-196 145 -4 100 -3 105 21 129 l25 25 -33 21 c-19 12 -53 42 -75 67 l-40 46 0
-271z m-190 -267 c0 -33 -2 -35 -35 -35 -41 0 -46 19 -15 50 31 31 50 26 50
-15z m625 -15 c0 -13 -26 -15 -162 -18 -159 -2 -163 -2 -163 18 0 20 4 20 163
18 136 -3 162 -5 162 -18z"/>
<path d="M5325 1624 c-15 -19 -44 -48 -66 -63 -38 -28 -38 -29 -19 -46 19 -17
20 -32 20 -217 l0 -198 -45 0 c-43 0 -45 -2 -45 -28 0 -15 -7 -38 -16 -50
l-15 -22 330 0 331 0 0 79 c0 65 -4 83 -22 106 -36 46 -74 55 -221 55 -121 0
-137 2 -161 21 l-26 20 0 190 c0 104 -4 189 -9 189 -5 0 -21 -16 -36 -36z
m370 -504 c0 -13 -26 -15 -162 -18 -132 -2 -163 0 -163 11 0 8 3 17 7 21 4 3
77 5 162 4 131 -3 156 -5 156 -18z"/>
<path d="M2322 1614 c-39 -27 -19 -94 27 -94 24 0 51 31 51 58 0 18 -33 52
-50 52 -3 0 -16 -7 -28 -16z"/>
<path d="M2461 1613 c-33 -22 -26 -74 12 -87 23 -8 31 -6 49 12 18 18 20 26
13 48 -13 35 -46 47 -74 27z"/>
<path d="M3932 1614 c-39 -27 -19 -94 27 -94 24 0 51 31 51 58 0 18 -33 52
-50 52 -3 0 -16 -7 -28 -16z"/>
<path d="M4401 1614 c-38 -27 -18 -94 28 -94 23 0 51 31 51 57 0 37 -47 59
-79 37z"/>
<path d="M4543 1619 c-42 -15 -37 -80 7 -94 42 -13 82 34 61 73 -13 24 -39 32
-68 21z"/>
<path d="M6962 1614 c-39 -27 -19 -94 27 -94 24 0 51 31 51 58 0 18 -33 52
-50 52 -3 0 -16 -7 -28 -16z"/>
<path d="M780 1595 c-11 -13 21 -15 280 -15 259 0 291 2 280 15 -10 13 -54 15
-280 15 -226 0 -270 -2 -280 -15z"/>
<path d="M530 1535 c-11 -13 38 -15 435 -15 397 0 446 2 435 15 -11 13 -72 15
-435 15 -363 0 -424 -2 -435 -15z"/>
<path d="M2519 1461 c-25 -27 -77 -72 -116 -100 -82 -60 -101 -92 -110 -186
l-6 -65 76 0 c41 0 82 -3 91 -6 21 -8 21 -62 -1 -86 -16 -17 9 -18 781 -18
l797 0 -15 22 c-13 18 -16 56 -16 208 l0 185 -46 -53 c-25 -29 -60 -60 -77
-69 -31 -16 -32 -16 -10 -26 26 -11 36 -50 31 -117 l-3 -45 -57 -3 -58 -3 0
157 0 157 -54 -59 c-29 -33 -65 -66 -80 -73 l-26 -14 23 -11 c20 -10 22 -19
22 -81 l0 -70 -42 -3 -43 -3 0 75 c0 42 -2 76 -4 76 -2 0 -28 -13 -57 -28 -53
-28 -54 -29 -54 -73 l0 -44 -42 -3 -43 -3 0 75 c0 42 -1 76 -2 76 -2 0 -28
-13 -60 -28 -45 -22 -54 -31 -47 -44 5 -9 6 -30 3 -47 l-7 -31 -216 2 -216 3
-5 160 c-3 88 -7 155 -8 149 -4 -21 -84 -105 -116 -121 -31 -16 -31 -16 -8
-26 27 -12 34 -36 30 -108 l-3 -54 -75 0 -75 0 3 203 c2 111 -1 202 -5 201 -4
0 -29 -22 -54 -48z m-49 -226 c0 -33 -2 -35 -35 -35 -41 0 -44 14 -13 47 31
34 48 29 48 -12z"/>
<path d="M545 1480 c17 -19 31 -20 230 -20 199 0 213 1 230 20 18 20 17 20
-230 20 -247 0 -248 0 -230 -20z"/>
<path d="M700 1425 c11 -13 70 -15 417 -15 359 0 404 2 393 15 -11 13 -70 15
-417 15 -359 0 -404 -2 -393 -15z"/>
<path d="M727 1384 c-3 -3 -3 -12 0 -20 4 -10 25 -14 79 -14 63 0 75 3 84 20
10 19 8 20 -73 20 -46 0 -86 -3 -90 -6z"/>
<path d="M717 1323 c-4 -3 -7 -10 -7 -15 0 -4 208 -8 461 -8 409 0 460 2 449
15 -11 13 -74 15 -455 15 -243 0 -445 -3 -448 -7z"/>
<path d="M654 1255 c-17 -13 -13 -14 52 -15 55 0 73 4 78 15 4 12 -5 15 -52
15 -36 0 -66 -6 -78 -15z"/>
<path d="M600 1200 c0 -7 197 -10 571 -10 377 0 568 3 564 10 -4 6 -205 10
-571 10 -369 0 -564 -3 -564 -10z"/>
<path d="M562 1148 c-23 -23 -11 -28 77 -28 86 0 101 5 101 36 0 10 -167 3
-178 -8z"/>
<path d="M530 1090 c0 -7 227 -10 661 -10 437 0 658 3 654 10 -9 14 -1315 14
-1315 0z"/>
<path d="M506 1034 c-3 -9 -6 -18 -6 -20 0 -2 52 -4 115 -4 108 0 115 1 115
20 0 19 -7 20 -109 20 -90 0 -110 -3 -115 -16z"/>
<path d="M490 975 c0 -13 89 -15 741 -15 658 0 740 2 729 15 -11 13 -106 15
-741 15 -641 0 -729 -2 -729 -15z"/>
<path d="M490 920 c0 -19 7 -20 145 -20 80 0 145 4 145 8 0 26 -30 32 -157 32
-126 0 -133 -1 -133 -20z"/>
<path d="M2674 895 c-15 -23 -15 -27 0 -50 20 -30 56 -33 79 -7 21 23 22 46 1
66 -24 24 -61 20 -80 -9z"/>
<path d="M2816 905 c-21 -22 -20 -48 3 -69 42 -38 108 13 77 59 -17 26 -59 31
-80 10z"/>
<path d="M490 865 c0 -13 95 -15 796 -15 707 0 795 2 784 15 -11 13 -112 15
-796 15 -690 0 -784 -2 -784 -15z"/>
<path d="M492 808 c4 -10 59 -14 224 -15 200 -2 216 -1 185 12 -45 20 -415 22
-409 3z"/>
<path d="M1430 805 c-11 -13 3 -15 115 -15 112 0 126 2 115 15 -10 12 -36 15
-115 15 -79 0 -105 -3 -115 -15z"/>
<path d="M510 750 c0 -7 287 -10 841 -10 557 0 838 3 834 10 -9 14 -1675 14
-1675 0z"/>
<path d="M5279 717 c-119 -34 -171 -132 -123 -233 21 -43 66 -69 178 -101 102
-28 121 -41 111 -72 -13 -43 -110 -37 -143 10 -11 16 -25 19 -93 19 -76 0 -79
-1 -79 -23 0 -39 56 -106 108 -130 70 -32 218 -31 285 1 110 55 132 204 38
271 -15 11 -71 32 -122 47 -119 34 -131 40 -127 67 4 32 86 37 113 7 15 -17
30 -20 101 -20 l83 0 -9 30 c-14 48 -47 87 -93 109 -54 26 -167 35 -228 18z"/>
<path d="M180 695 c-11 -13 80 -15 808 -15 720 0 821 2 826 15 5 13 -89 15
-808 15 -711 0 -815 -2 -826 -15z"/>
<path d="M3170 640 l0 -70 80 0 80 0 2 -197 3 -198 88 -3 87 -3 0 201 0 201
83 -3 82 -3 5 -135 c4 -112 8 -141 26 -170 40 -69 112 -100 234 -100 95 0 141
13 187 53 60 53 66 78 71 300 l4 197 -91 0 -91 0 0 -189 0 -190 -26 -20 c-37
-29 -89 -27 -119 4 -25 24 -25 26 -25 210 l0 185 -340 0 -340 0 0 -70z"/>
<path d="M4272 443 l3 -268 83 -3 82 -3 0 143 0 143 93 -140 92 -140 85 0 85
0 3 75 c2 41 1 162 -3 268 l-7 192 -79 0 -79 0 0 -136 c0 -81 -4 -134 -10
-132 -5 2 -47 61 -93 133 l-83 130 -87 3 -87 3 2 -268z"/>
<path d="M4890 440 l0 -271 88 3 87 3 3 65 c2 36 1 156 -3 268 l-7 202 -84 0
-84 0 0 -270z"/>
<path d="M5795 698 c-24 -65 -174 -488 -179 -506 -8 -23 -7 -23 80 -20 l88 3
8 33 9 32 93 0 93 0 9 -32 10 -33 87 -3 c48 -1 87 0 87 4 0 5 -150 422 -187
522 -4 8 -33 12 -99 12 -67 0 -96 -4 -99 -12z m129 -252 c14 -46 26 -87 26
-90 0 -3 -25 -6 -55 -6 -30 0 -55 3 -55 6 0 19 45 174 51 174 4 0 18 -38 33
-84z"/>
<path d="M6220 440 l0 -270 90 0 90 0 0 270 0 270 -90 0 -90 0 0 -270z"/>
<path d="M6482 443 l3 -268 85 0 85 0 3 92 3 93 52 0 c78 0 97 -17 97 -88 0
-103 -1 -102 101 -102 81 0 106 8 79 25 -5 3 -10 37 -10 75 0 81 -13 116 -51
136 l-27 14 33 33 c80 80 46 216 -63 247 -20 5 -117 10 -215 10 l-177 0 2
-267z m323 113 c14 -20 14 -29 4 -48 -17 -33 -28 -38 -90 -38 -43 0 -58 4 -63
16 -8 21 -8 79 1 87 3 4 35 7 69 7 56 0 65 -3 79 -24z"/>
<path d="M180 635 c11 -13 142 -15 1072 -15 942 0 1059 2 1048 15 -11 13 -142
15 -1072 15 -942 0 -1059 -2 -1048 -15z"/>
<path d="M222 588 c3 -8 28 -14 69 -16 59 -2 62 -1 45 13 -25 19 -120 21 -114
3z"/>
<path d="M600 585 c11 -13 96 -15 652 -15 568 0 639 2 628 15 -11 13 -96 15
-652 15 -568 0 -639 -2 -628 -15z"/>
<path d="M295 520 c3 -5 31 -10 61 -10 34 0 53 4 49 10 -3 6 -31 10 -61 10
-34 0 -53 -4 -49 -10z"/>
<path d="M670 520 c21 -14 1763 -14 1755 0 -4 7 -311 10 -888 10 -573 0 -877
-4 -867 -10z"/>
<path d="M350 465 c8 -10 31 -15 67 -15 48 0 54 2 43 15 -8 10 -31 15 -67 15
-48 0 -54 -2 -43 -15z"/>
<path d="M765 465 c43 -20 350 -20 385 0 22 13 1 14 -195 14 -195 -1 -217 -2
-190 -14z"/>
<path d="M1672 468 c4 -10 49 -14 173 -16 149 -2 166 -1 155 13 -10 12 -41 15
-172 15 -123 0 -159 -3 -156 -12z"/>
<path d="M405 410 c3 -5 31 -10 61 -10 34 0 53 4 49 10 -3 6 -31 10 -61 10
-34 0 -53 -4 -49 -10z"/>
<path d="M1730 410 c21 -13 813 -13 805 0 -4 6 -152 10 -413 10 -266 0 -402
-4 -392 -10z"/>
<path d="M460 355 c8 -10 31 -15 67 -15 48 0 54 2 43 15 -8 10 -31 15 -67 15
-48 0 -54 -2 -43 -15z"/>
<path d="M1820 355 c20 -12 90 -14 374 -15 309 0 347 2 336 15 -11 13 -64 15
-374 15 -318 -1 -358 -2 -336 -15z"/>
<path d="M515 300 c3 -5 31 -10 61 -10 34 0 53 4 49 10 -3 6 -31 10 -61 10
-34 0 -53 -4 -49 -10z"/>
<path d="M2325 295 c28 -7 113 -13 194 -14 126 -1 142 1 131 14 -10 12 -44 15
-194 14 -168 -1 -177 -2 -131 -14z"/>
<path d="M575 240 c10 -11 29 -20 42 -20 16 0 23 6 23 20 0 17 -7 20 -42 20
-40 0 -41 0 -23 -20z"/>
<path d="M2510 235 c14 -8 52 -14 89 -15 55 0 62 2 51 15 -9 11 -33 15 -89 15
-71 -1 -74 -2 -51 -15z"/>
<path d="M620 190 c0 -5 5 -10 10 -10 6 0 10 5 10 10 0 6 -4 10 -10 10 -5 0
-10 -4 -10 -10z"/>
<path d="M2625 180 c29 -12 138 -12 130 0 -3 6 -39 10 -78 9 -50 0 -66 -3 -52
-9z"/>
</g>
</svg>
